<svg width="123" height="19" viewBox="0 0 123 19" fill="none" xmlns="http://www.w3.org/2000/svg">
<path d="M10 0L13.09 6.14462L20 7.136L15 11.9162L16.18 18.6694L10 15.4793L3.82 18.6694L5 11.9162L0 7.136L6.91 6.14462L10 0Z" fill="#B96C3F"/>
<path d="M36 0L39.09 6.14462L46 7.136L41 11.9162L42.18 18.6694L36 15.4793L29.82 18.6694L31 11.9162L26 7.136L32.91 6.14462L36 0Z" fill="#B96C3F"/>
<path d="M62 0L65.09 6.14462L72 7.136L67 11.9162L68.18 18.6694L62 15.4793L55.82 18.6694L57 11.9162L52 7.136L58.91 6.14462L62 0Z" fill="#B96C3F"/>
<path d="M88 0L91.09 6.14462L98 7.136L93 11.9162L94.18 18.6694L88 15.4793L81.82 18.6694L83 11.9162L78 7.136L84.91 6.14462L88 0Z" fill="#B96C3F"/>
<path d="M113 0L116.09 6.14462L123 7.136L118 11.9162L119.18 18.6694L113 15.4793L106.82 18.6694L108 11.9162L103 7.136L109.91 6.14462L113 0Z" fill="#B96C3F"/>
</svg>
